<?xml version="1.0" encoding="UTF-8"?>
<!DOCTYPE svg PUBLIC "-//W3C//DTD SVG 1.1//EN" "http://www.w3.org/Graphics/SVG/1.1/DTD/svg11.dtd">
<!-- Creator: CorelDRAW 2021 (64-Bit) -->
<svg xmlns="http://www.w3.org/2000/svg" xml:space="preserve" width="210mm" height="297mm" version="1.1" style="shape-rendering:geometricPrecision; text-rendering:geometricPrecision; image-rendering:optimizeQuality; fill-rule:evenodd; clip-rule:evenodd"
viewBox="0 0 21000 29700"
 xmlns:xlink="http://www.w3.org/1999/xlink"
 xmlns:xodm="http://www.corel.com/coreldraw/odm/2003">
 <defs>
  <style type="text/css">
   <![CDATA[
    .str1 {stroke:#B3B3B3;stroke-width:16.93;stroke-linecap:round;stroke-linejoin:round;stroke-miterlimit:22.9256}
    .str0 {stroke:white;stroke-width:16.93;stroke-linecap:round;stroke-linejoin:round;stroke-miterlimit:22.9256}
    .fil1 {fill:#B3B3B3}
    .fil0 {fill:white}
   ]]>
  </style>
 </defs>
 <g id="Layer_x0020_1">
  <metadata id="CorelCorpID_0Corel-Layer"/>
  <g id="_2117967630080">
   <path class="fil0 str0" d="M3038.98 16442.8c0,-675.62 0,-1351.26 0,-2026.88 0,-675.65 0,-1352.14 0,-2028.67 136.65,0 273.29,0 409.93,0 0,-367.97 0,-735.95 0,-1103.92 -184,0 -368,0 -552.03,0 -184.01,0 -368.01,0 -552.04,0 0,367.97 0,735.95 0,1103.92 134.07,0 267.82,0 401.54,0 0,673.89 0,1347.78 0,2021.67 0,673.89 0,1347.78 0,2021.64 -181.11,-496.43 -390.58,-969.32 -630.97,-1415.05 -240.4,-445.76 -512.72,-865.31 -818.89,-1256 0,-1148.49 0,-2088.1 0,-3027.68 0,-939.61 0,-1880.07 0,-3029.46 537.22,0 1074.75,0 1611.63,0 536.91,0 1074.1,0 1610.98,0 0,1149.39 0,2097.72 0,3045.18 0,947.46 0,1895.79 0,3044.3 -313.87,402.05 -593.59,825.09 -839.48,1266.49 -245.89,441.39 -459.21,903.75 -640.67,1384.46z"/>
   <rect class="fil1 str1" x="1758.26" y="14719.42" width="504.72" height="504.72"/>
   <rect class="fil1 str1" x="1069.95" y="12508.84" width="581.35" height="581.35"/>
   <rect class="fil1 str1" x="3961.06" y="14249.22" width="508.78" height="508.78"/>
   <rect class="fil0 str0" x="4651.42" y="7831.38" width="966.04" height="966.04"/>
   <rect class="fil1 str1" x="4651.42" y="8964.39" width="966.04" height="966.04"/>
   <rect class="fil0 str0" x="4651.42" y="10125.74" width="966.04" height="966.04"/>
   <rect class="fil1 str1" x="4651.42" y="11287.08" width="966.04" height="966.04"/>
   <rect class="fil0 str0" x="4651.42" y="12420.1" width="966.04" height="966.04"/>
   <rect class="fil1 str1" x="5812.77" y="7831.38" width="966.04" height="966.04"/>
   <rect class="fil0 str0" x="5812.77" y="8964.39" width="966.04" height="966.04"/>
   <rect class="fil1 str1" x="5812.77" y="10125.74" width="966.04" height="966.04"/>
   <rect class="fil0 str0" x="6974.11" y="7831.38" width="966.04" height="966.04"/>
  </g>
 </g>
</svg>
